<svg id="Layer_1" data-name="Layer 1" xmlns="http://www.w3.org/2000/svg" viewBox="0 0 50 50"><defs><style>.cls-1{fill:none;stroke:#000;stroke-linecap:round;stroke-linejoin:round;stroke-width:1.58px;}</style></defs><title>bath_icon</title><rect class="cls-1" x="8.09" y="24.12" width="33.82" height="3.6" rx="1.8"/><path class="cls-1" d="M40.79,27.72H9.21l.72,5a5.36,5.36,0,0,0,5.36,5.36H34.71a5.36,5.36,0,0,0,5.36-5.36Z"/><path class="cls-1" d="M11.21,36.21l-1,2.39a1.61,1.61,0,1,0,3,1.19L14,37.94A5.31,5.31,0,0,1,11.21,36.21Z"/><path class="cls-1" d="M38.79,36.21l1,2.39a1.61,1.61,0,1,1-3,1.19L36,37.94A5.31,5.31,0,0,0,38.79,36.21Z"/><path class="cls-1" d="M10.25,23.58V13.51a4.31,4.31,0,0,1,4.32-4.32h0a4.31,4.31,0,0,1,3.58,1.9"/><path class="cls-1" d="M22.84,14.1H14.57l.16-.29a4.5,4.5,0,0,1,4-2.37h0a4.52,4.52,0,0,1,4,2.37Z"/><line class="cls-1" x1="14.57" y1="17.1" x2="14.57" y2="17.82"/><line class="cls-1" x1="18.88" y1="17.1" x2="18.88" y2="17.82"/><line class="cls-1" x1="16.73" y1="19.98" x2="16.73" y2="20.7"/><line class="cls-1" x1="21.04" y1="19.98" x2="21.04" y2="20.7"/><line class="cls-1" x1="23.2" y1="17.1" x2="23.2" y2="17.82"/></svg>