<svg id="Layer_1" data-name="Layer 1" xmlns="http://www.w3.org/2000/svg" viewBox="0 0 50 50"><defs><style>.cls-1{fill:none;stroke:#000;stroke-linecap:round;stroke-linejoin:round;stroke-width:1.58px;}</style></defs><title>bed_icon</title><rect class="cls-1" x="7.98" y="29.27" width="34.04" height="6.04"/><line class="cls-1" x1="10.49" y1="35.79" x2="10.49" y2="38.67"/><line class="cls-1" x1="39.27" y1="35.79" x2="39.27" y2="38.67"/><rect class="cls-1" x="15.58" y="18.84" width="7.01" height="4.3" rx="0.8"/><rect class="cls-1" x="27.09" y="18.84" width="7.01" height="4.3" rx="0.8"/><polyline class="cls-1" points="15.53 21.4 11.88 21.4 7.98 29.32 42.02 29.32 38.12 21.4 34.23 21.4"/><line class="cls-1" x1="27.04" y1="21.4" x2="22.72" y2="21.4"/><path class="cls-1" d="M34.23,21.4h3.6V12.59c0-.8-.35-1.26-1.15-1.26H13.32a1.25,1.25,0,0,0-1.39,1.26V21.4h3.6"/><line class="cls-1" x1="22.72" y1="21.4" x2="27.04" y2="21.4"/></svg>