<svg id="Layer_1" data-name="Layer 1" xmlns="http://www.w3.org/2000/svg" viewBox="0 0 295 83"><defs><style>.cls-1{font-size:31.06px;}.cls-1,.cls-2,.cls-6{fill:#fff;}.cls-1,.cls-2{font-family:TrebuchetMS-Bold, Trebuchet MS;font-weight:700;}.cls-2{font-size:9.77px;}.cls-3{letter-spacing:-0.06em;}.cls-4{letter-spacing:-0.02em;}.cls-5{letter-spacing:-0.07em;}</style></defs><title>commercial_white</title><text class="cls-1" transform="translate(91.42 48.68)">Commercial</text><text class="cls-2" transform="translate(95.01 58.32)"><tspan class="cls-3">A</tspan><tspan x="5.65" y="0" xml:space="preserve"> REALIT</tspan><tspan class="cls-4" x="40.39" y="0">Y</tspan><tspan x="46.2" y="0" xml:space="preserve"> REA</tspan><tspan class="cls-5" x="66.85" y="0">L</tspan><tspan x="71.53" y="0">T</tspan><tspan class="cls-4" x="77.5" y="0">Y</tspan><tspan x="83.31" y="0" xml:space="preserve"> DIVISION</tspan></text><path class="cls-6" d="M66.39,40.8a2.12,2.12,0,0,0-2.12,2.12A2.1,2.1,0,0,0,66.37,45h6.5V40.8Z"/><path class="cls-6" d="M84.7,37.35,59.86,25.69a1.94,1.94,0,0,0-1.63,0L33.38,37.35A3.35,3.35,0,0,0,35,43.64v11.7a3,3,0,0,0,3,3H80.12a3,3,0,0,0,3-3V43.64a3.35,3.35,0,0,0,1.59-6.29ZM77.49,53.81A1.19,1.19,0,0,1,76.3,55H74.07a1.2,1.2,0,0,1-1.2-1.2V48.45H69.73a3.18,3.18,0,0,0-2.63,1.4L64.33,54a2.35,2.35,0,0,1-1.94,1H55.7a2.33,2.33,0,0,1-1.94-1L51,49.85a3.19,3.19,0,0,0-2.63-1.4H45.21v5.36A1.19,1.19,0,0,1,44,55H41.79a1.2,1.2,0,0,1-1.2-1.2V38.34a1.19,1.19,0,0,1,1.2-1.19H52.24A7.59,7.59,0,0,1,57,38.87a5,5,0,0,1,1.48,4A4.68,4.68,0,0,1,57.19,46a4.73,4.73,0,0,1-3.31,1.35,2.38,2.38,0,0,1,1.73,1.21L59,53.65l3.44-5.11a2.38,2.38,0,0,1,1.73-1.21A4.72,4.72,0,0,1,60.9,46a4.66,4.66,0,0,1-1.29-3.07,5,5,0,0,1,1.49-4,7.59,7.59,0,0,1,4.75-1.72H76.3a1.19,1.19,0,0,1,1.19,1.19Z"/><path class="cls-6" d="M51.7,40.8H45.23l0,4.21h6.5a2.11,2.11,0,1,0,0-4.21Z"/></svg>