<?xml version="1.0" encoding="utf-8"?>
<!-- Generator: Adobe Illustrator 23.0.1, SVG Export Plug-In . SVG Version: 6.00 Build 0)  -->
<svg version="1.1" id="Layer_1" xmlns="http://www.w3.org/2000/svg" xmlns:xlink="http://www.w3.org/1999/xlink" x="0px" y="0px"
	 viewBox="0 0 50 50" style="enable-background:new 0 0 50 50;" xml:space="preserve">
<style type="text/css">
	.st0{fill:none;stroke:#FFFFFF;stroke-width:2.15;stroke-miterlimit:10;}
</style>
<path class="st0" d="M26,38.5c-0.6-0.4-1.3-0.4-1.9,0l-11.4,8.2c-0.7,0.5-1.7,0.4-2.3-0.4c-0.3-0.4-0.4-1-0.2-1.5l4.3-13.3
	c0.2-0.7,0-1.4-0.6-1.8L2.6,21.5c-0.8-0.5-1-1.5-0.4-2.3c0.3-0.5,0.9-0.8,1.4-0.7h14c0.7,0,1.3-0.4,1.5-1.1l4.3-13.3
	c0.3-0.9,1.2-1.3,2.1-1c0.5,0.2,0.9,0.5,1,1l4.3,13.3c0.2,0.7,0.8,1.1,1.5,1.1h14c0.9,0,1.7,0.6,1.7,1.6c0,0.6-0.2,1.1-0.7,1.4
	l-11.4,8.2c-0.6,0.4-0.8,1.2-0.6,1.8l4.3,13.3c0.3,0.9-0.2,1.8-1,2.1c-0.5,0.2-1.1,0.1-1.5-0.2L26,38.5"/>
</svg>
