<svg id="Layer_1" data-name="Layer 1" xmlns="http://www.w3.org/2000/svg" viewBox="0 0 50 50"><defs><style>.cls-1{fill:none;stroke:#727272;stroke-miterlimit:10;stroke-width:2.15px;}</style></defs><title>favorites_icon</title><path class="cls-1" d="M26,38.46a1.65,1.65,0,0,0-1.92,0L12.72,46.69a1.63,1.63,0,0,1-2.51-1.83l4.32-13.3a1.64,1.64,0,0,0-.59-1.83L2.62,21.51a1.64,1.64,0,0,1,1-3h14a1.61,1.61,0,0,0,1.55-1.12L23.45,4.12a1.63,1.63,0,0,1,3.1,0l4.33,13.31a1.61,1.61,0,0,0,1.55,1.12h14a1.64,1.64,0,0,1,1,3L36.06,29.73a1.64,1.64,0,0,0-.59,1.83l4.32,13.3a1.63,1.63,0,0,1-2.51,1.83L26,38.46"/></svg>