<svg id="Layer_1" data-name="Layer 1" xmlns="http://www.w3.org/2000/svg" viewBox="0 0 50 50"><defs><style>.cls-1,.cls-2{fill:none;stroke:#000;stroke-linecap:round;stroke-linejoin:round;}.cls-1{stroke-width:1.58px;}.cls-2{stroke-width:1.23px;}</style></defs><title>land_area_commercial_icon</title><line class="cls-1" x1="18.63" y1="42.54" x2="41.28" y2="42.54"/><line class="cls-1" x1="10.75" y1="37.4" x2="10.75" y2="14.75"/><polyline class="cls-1" points="39.47 14.75 41.28 14.75 41.28 37.4 18.63 37.4 18.63 14.75 25.54 14.75"/><line class="cls-1" x1="12.43" y1="14.75" x2="8.72" y2="14.75"/><line class="cls-1" x1="12.43" y1="37.4" x2="8.72" y2="37.4"/><line class="cls-1" x1="41.28" y1="44.4" x2="41.28" y2="40.69"/><line class="cls-1" x1="18.63" y1="44.4" x2="18.63" y2="40.69"/><path class="cls-2" d="M36.8,10.87a5.83,5.83,0,0,0,.06-.72,4.55,4.55,0,1,0-9.1,0,5.83,5.83,0,0,0,.06.72,6.43,6.43,0,1,0,9,0Z"/><line class="cls-2" x1="32.27" y1="13.89" x2="32.27" y2="30.16"/><polyline class="cls-2" points="35.28 17.57 32.27 19.76 29.27 17.57"/><line class="cls-2" x1="32.27" y1="16.15" x2="34.06" y2="14.99"/></svg>