<svg id="Layer_1" data-name="Layer 1" xmlns="http://www.w3.org/2000/svg" viewBox="0 0 511.9 112.23"><defs><style>.cls-1{fill:#d92726;}.cls-2{fill:#fff;}</style></defs><title>logo_rr_white</title><path class="cls-1" d="M105,116.31H34.67a10,10,0,0,1-10-10V67.28a11.18,11.18,0,0,1-5.3-21L102.31,7.38a6.42,6.42,0,0,1,5.45,0L190.69,46.3a11.18,11.18,0,0,1-5.31,21v39.06a10,10,0,0,1-10,10H105" transform="translate(-13.59 -6.77)"/><path class="cls-2" d="M167.11,50v51.66a4,4,0,0,1-4,4h-7.46a4,4,0,0,1-4-4V83.72H141.18a10.6,10.6,0,0,0-8.77,4.67l-9.26,13.77a7.8,7.8,0,0,1-6.48,3.45H94.35a7.81,7.81,0,0,1-6.48-3.45L78.62,88.39a10.62,10.62,0,0,0-8.78-4.67H59.35v17.91a4,4,0,0,1-4,4H47.91a4,4,0,0,1-4-4V50a4,4,0,0,1,4-4H82.78c1.71,0,9.89.37,15.87,5.76,4.46,4,5,9.53,5,12.08a11.62,11.62,0,0,1-.07,1.4,15.57,15.57,0,0,1-4.28,10.25C94.87,80.21,88.27,80,88.27,80s3.1.06,5.78,4.05l11.47,17.06L117,84c2.67-4,5.77-4.05,5.77-4.05s-6.59.22-11-4.51a15.59,15.59,0,0,1-4.3-10.25,11.62,11.62,0,0,1-.07-1.4c0-2.55.57-8.06,5-12.08,6-5.39,14.16-5.76,15.87-5.76h34.88A4,4,0,0,1,167.11,50ZM151.69,72.24l-.06-14H130a7,7,0,1,0-.06,14Zm-70.64,0a7,7,0,1,0-.06-14H59.39l0,14Z" transform="translate(-13.59 -6.77)"/><path class="cls-2" d="M213.69,116.31l-4.4-6.81c-.44,0-1.06,0-1.86-.07v6.88h-3V99.83l1.9-.09c1.1-.06,2-.08,2.66-.08q6.28,0,6.29,4.86a4.49,4.49,0,0,1-.87,2.67,4.74,4.74,0,0,1-2.18,1.7l4.87,7.42Zm-6.26-13.94V107c.54,0,1,.07,1.24.07a5.4,5.4,0,0,0,2.69-.52,2.2,2.2,0,0,0,.85-2,1.74,1.74,0,0,0-.92-1.69,6.27,6.27,0,0,0-2.87-.49A7,7,0,0,0,207.43,102.37Z" transform="translate(-13.59 -6.77)"/><path class="cls-2" d="M251,102.43v3.86h5.45v2.48H251v4.94h7.47v2.6h-10.4V99.83h10.53v2.6Z" transform="translate(-13.59 -6.77)"/><path class="cls-2" d="M300.45,116.31l-1.2-3.34H293.6l-1.15,3.34h-3.26l6.58-16.71h1.28l6.63,16.71Zm-4-11.67-2,6.09h4Z" transform="translate(-13.59 -6.77)"/><path class="cls-2" d="M335,116.31V99.83H338v13.88h7.45v2.6Z" transform="translate(-13.59 -6.77)"/><path class="cls-2" d="M382.4,102.43v13.88h-2.93V102.43h-5.24v-2.6h13.65v2.6Z" transform="translate(-13.59 -6.77)"/><path class="cls-2" d="M426.27,109.55v6.76h-2.93v-6.76l-5.56-9.72h3.11l3.9,7,3.92-7h3.1Z" transform="translate(-13.59 -6.77)"/><path class="cls-2" d="M246.27,92.66,227.08,65.5c-1.93,0-4.62-.14-8.09-.32V92.66H205.74V26.88q1.08,0,8.29-.34c4.81-.22,8.69-.34,11.63-.34q27.39,0,27.38,19.4a16.82,16.82,0,0,1-3.78,10.65A20.3,20.3,0,0,1,239.74,63L261,92.66ZM219,37V55.3q3.52.27,5.4.27,8,0,11.7-2.06t3.7-8q0-4.84-4-6.78t-12.51-1.93A36.29,36.29,0,0,0,219,37Z" transform="translate(-13.59 -6.77)"/><path class="cls-2" d="M307.67,72.05H270.13A11.79,11.79,0,0,0,274.45,81q4,3.18,10.7,3.19,8.39,0,12.76-4l4.76,8.58q-6.48,4.8-19.34,4.8-12,0-19-6.44t-7-18q0-11.35,7.68-18.41a26.27,26.27,0,0,1,18.42-7q11.43,0,18.35,6.24a20.49,20.49,0,0,1,6.92,15.9A28.61,28.61,0,0,1,307.67,72.05Zm-37.09-8.44h25.81q-1.29-10.55-12.76-10.55Q273.13,53.06,270.58,63.61Z" transform="translate(-13.59 -6.77)"/><path class="cls-2" d="M342.13,87.86A11.85,11.85,0,0,1,336.32,92a24,24,0,0,1-8.66,1.59q-8.49,0-13.35-3.88t-4.86-11a15,15,0,0,1,6.85-13.06q6.84-4.73,19.45-4.72a24,24,0,0,1,5.11.67q0-8.48-11.73-8.48a28,28,0,0,0-11.58,2.11l-2.65-8.71A37.14,37.14,0,0,1,330,43.67q12,0,17.62,5t5.59,19V77.93q0,9.61,4.22,12.08A6.37,6.37,0,0,1,354,93a15,15,0,0,1-4.27.56,7.12,7.12,0,0,1-4.76-1.8A9,9,0,0,1,342.13,87.86ZM341,70a28.09,28.09,0,0,0-4.71-.58q-14.52,0-14.52,8.71,0,6.47,8.19,6.46,11,0,11-10.1Z" transform="translate(-13.59 -6.77)"/><path class="cls-2" d="M362.9,26.65,375.17,24V78q0,8.9,5.79,10.6-2.85,4.93-9.71,4.94-8.36,0-8.35-10.6Z" transform="translate(-13.59 -6.77)"/><path class="cls-2" d="M388.09,92.66V53.78h-6.72V44.57H400.5V92.66Zm6.33-66.72a7.2,7.2,0,0,1,5,1.9,6.12,6.12,0,0,1,0,9.21,7.58,7.58,0,0,1-10.06,0,6.14,6.14,0,0,1,0-9.21A7.2,7.2,0,0,1,394.42,25.94Z" transform="translate(-13.59 -6.77)"/><path class="cls-2" d="M411,53.6h-6.08v-9H411V34.78l12.27-4.13V44.57h6.5l4,9H423.29V74.66q0,5.16,1.76,7.29t6.19,2.14a16.33,16.33,0,0,0,8.24-2.2V92.21q-4.28,1.35-12.17,1.35T415.24,89.5Q411,85.44,411,77.93Z" transform="translate(-13.59 -6.77)"/><path class="cls-2" d="M462.17,105.14c-3.06,7.54-9.41,10.84-20.68,11.17l-.06-10c4.46-.24,7.53-1.17,9.47-2.51,3-2.05,3.9-5.66,3.9-8.34q0-4.33-3.92-13.29L434.45,44.57h12.7L461.49,78l12.89-33.47H487.1Z" transform="translate(-13.59 -6.77)"/><path class="cls-2" d="M472.05,109.08h1.88v8.09h4.21v1.69h-6.09Z" transform="translate(-13.59 -6.77)"/><path class="cls-2" d="M479.75,109.08h1.87v9.78h-1.87Z" transform="translate(-13.59 -6.77)"/><path class="cls-2" d="M490,111a3.37,3.37,0,0,0-1.43-.34,3.24,3.24,0,0,0-1.66.44,3.09,3.09,0,0,0-1.19,1.19,3.46,3.46,0,0,0,0,3.34,3.12,3.12,0,0,0,1.19,1.2,3.24,3.24,0,0,0,1.66.44,3.41,3.41,0,0,0,1.4-.31,4,4,0,0,0,1.25-.85l1.11,1.23a6,6,0,0,1-1.79,1.24,5.16,5.16,0,0,1-4.65-.22,5,5,0,0,1-1.85-1.82,5.06,5.06,0,0,1-.67-2.55,4.92,4.92,0,0,1,2.55-4.34,5.39,5.39,0,0,1,4.67-.24,4.93,4.93,0,0,1,1.72,1.16l-1.09,1.37A3.6,3.6,0,0,0,490,111Z" transform="translate(-13.59 -6.77)"/><path class="cls-2" d="M495.08,117.25a1,1,0,0,1,.27.72,1,1,0,0,1-.27.73,1,1,0,0,1-.7.29.86.86,0,0,1-.67-.3,1.07,1.07,0,0,1,0-1.44.9.9,0,0,1,.67-.27A1,1,0,0,1,495.08,117.25Z" transform="translate(-13.59 -6.77)"/><path class="cls-2" d="M500.86,109.08H508v1.64h-5.29v2.41h4.74v1.64h-4.74v2.46h5.46v1.63h-7.34Z" transform="translate(-13.59 -6.77)"/><path class="cls-2" d="M515.39,113a3,3,0,0,1,1.29,1,2.7,2.7,0,0,1,.45,1.53,3.21,3.21,0,0,1-.47,1.75,3.11,3.11,0,0,1-1.34,1.16,4.57,4.57,0,0,1-2,.41,6.82,6.82,0,0,1-3.69-1.16l.74-1.46a5.43,5.43,0,0,0,1.34.76,4,4,0,0,0,1.43.27,2.32,2.32,0,0,0,1.46-.42,1.44,1.44,0,0,0,.53-1.17,1.27,1.27,0,0,0-.53-1.1,2.65,2.65,0,0,0-1.58-.39l-1.32,0c-.55,0-1,0-1.27.08v-5.3h6.28v1.64h-4.55v1.94h1.3A4.73,4.73,0,0,1,515.39,113Z" transform="translate(-13.59 -6.77)"/><path class="cls-2" d="M524.68,114a2.28,2.28,0,0,1,.8,1.83,2.8,2.8,0,0,1-.47,1.62,3.24,3.24,0,0,1-1.35,1.11,5.08,5.08,0,0,1-2.06.39,6.62,6.62,0,0,1-2-.3,5.28,5.28,0,0,1-1.65-.8l.74-1.45a4.63,4.63,0,0,0,1.29.75,4.31,4.31,0,0,0,1.46.25,2.76,2.76,0,0,0,1.6-.41,1.35,1.35,0,0,0,.58-1.14,1.27,1.27,0,0,0-.58-1.11,3,3,0,0,0-1.63-.38H520v-1.13l2.62-2.54h-4.12v-1.6H525v1.16l-3,2.87.51,0A3.71,3.71,0,0,1,524.68,114Z" transform="translate(-13.59 -6.77)"/></svg>