<svg id="Layer_1" data-name="Layer 1" xmlns="http://www.w3.org/2000/svg" viewBox="0 0 295 83"><defs><style>.cls-1{fill:#fff;}</style></defs><title>luxe_white</title><path class="cls-1" d="M129.55,5a3.14,3.14,0,0,1,1,.63A2.57,2.57,0,0,1,131,6.75a13.4,13.4,0,0,1,.14,2.15V31.84H149.9V30H139.23c-.9,0-1.61,0-2.12,0a2.33,2.33,0,0,1-1-.16,1.56,1.56,0,0,1-.51-.27,1.45,1.45,0,0,1-.36-.53,3.31,3.31,0,0,1-.2-.86,11.25,11.25,0,0,1-.07-1.27V8.39c0-.39,0-.78-.06-1.19a9.53,9.53,0,0,0-.2-1.19A4,4,0,0,0,134.3,5a2.19,2.19,0,0,0-.7-.75,1.9,1.9,0,0,0-1.07-.29h-5.38v.85h1A3.91,3.91,0,0,1,129.55,5Z"/><path class="cls-1" d="M155,5.44c.51.51.76,1.64.76,3.4V19.75c0,1.65.05,3.05.16,4.19a10.85,10.85,0,0,0,.5,2.66,8,8,0,0,0,1.3,2.39,9.06,9.06,0,0,0,2,1.88,13,13,0,0,0,7,1.55,16.48,16.48,0,0,0,3.78-.4,8.37,8.37,0,0,0,2.88-1.25A8.92,8.92,0,0,0,175.4,29a7.19,7.19,0,0,0,1.22-2.17A15.8,15.8,0,0,0,177.2,24a28.69,28.69,0,0,0,.21-3.7V3.89h-1.86V20.14a31,31,0,0,1-.2,3.76,11.83,11.83,0,0,1-.54,2.51,6.31,6.31,0,0,1-1.18,1.7,9,9,0,0,1-1.83,1.4,11.35,11.35,0,0,1-2.28.87,10.36,10.36,0,0,1-2.57.3,9,9,0,0,1-2-.21,7.26,7.26,0,0,1-1.65-.59A5.77,5.77,0,0,1,162,29a4.59,4.59,0,0,1-.92-1.07,5.71,5.71,0,0,1-.66-1.38,11.49,11.49,0,0,1-.43-1.92c-.1-.66-.17-1.3-.21-1.93s-.06-1.2-.06-1.72V8.84c0-1,0-1.84,0-2.48a9.29,9.29,0,0,0-.06-1.51,1.2,1.2,0,0,0-.34-.75,1.24,1.24,0,0,0-.79-.21h-6.85v.79h1a4.58,4.58,0,0,1,1.37.17A1.59,1.59,0,0,1,155,5.44Z"/><path class="cls-1" d="M149.79,64.17a11.25,11.25,0,0,1-1.52-1.7c-.55-.74-1.22-1.72-2-2.94l-6-9L149.94,38h-2.09l-8.58,11-4.22-6.41c-.32-.47-.65-1-1-1.51A9.72,9.72,0,0,0,133,39.67a6,6,0,0,0-1.35-1.11,3.23,3.23,0,0,0-1.67-.44h-5.84v.74a6.54,6.54,0,0,1,1.89.27,6.71,6.71,0,0,1,1.68.76,5.55,5.55,0,0,1,.56.44,6.4,6.4,0,0,1,.75.78c.3.34.66.8,1.09,1.36s.94,1.29,1.56,2.17,1.36,1.94,2.21,3.18,1.85,2.72,3,4.43l-10.1,13h0l-8.39,10.84a4.25,4.25,0,0,1-2.07,1.44l-1,.33v.51h2.64a1.77,1.77,0,0,0,1.39-.69L128.32,66l9.45-12.27,4.7,7.2c.52.77,1,1.47,1.39,2.09a9.85,9.85,0,0,0,1.28,1.6,4.88,4.88,0,0,0,1.53,1,5.51,5.51,0,0,0,2.13.36H153v-.74a7.84,7.84,0,0,1-1.72-.3A3.88,3.88,0,0,1,149.79,64.17Z"/><path class="cls-1" d="M178.91,59a16.52,16.52,0,0,1-1.28,2.23,10.84,10.84,0,0,1-1.29,1.59,8.41,8.41,0,0,1-1,.85,3.85,3.85,0,0,1-1,.5,6.13,6.13,0,0,1-1.36.22q-.78.06-2,.06h-6.34a6.6,6.6,0,0,1-1-.07,2.78,2.78,0,0,1-.55-.12,2.37,2.37,0,0,1-.37-.25.8.8,0,0,1-.24-.4,3.38,3.38,0,0,1-.12-.79c0-.35,0-.83,0-1.45v-9.2h10.19V50.62H162.34v-11h9.21a13.58,13.58,0,0,1,2.37.17,2.8,2.8,0,0,1,2.36,2,16.76,16.76,0,0,1,.63,2.38h.48V38.1H154.48v.74h1a3,3,0,0,1,2.47.89,1.84,1.84,0,0,1,.39,1.08A20.22,20.22,0,0,1,158.4,43v23h19l2.39-7Z"/><path class="cls-1" d="M133,71.94a.87.87,0,0,0,.31-.14,1,1,0,0,0,.3-.28,1.69,1.69,0,0,0,.19-.38,1.63,1.63,0,0,0,.07-.45,1.18,1.18,0,0,0-.1-.48,1.38,1.38,0,0,0-.25-.42,1.35,1.35,0,0,0-.4-.31,1.19,1.19,0,0,0-.51-.11h-1.76v4.15h.51V72h1.11l.94,1.47v0H134Zm.3-.92a.69.69,0,0,1-.15.28.63.63,0,0,1-.23.2.69.69,0,0,1-.29.07H131.4V69.83h1.23a.59.59,0,0,1,.29.07.79.79,0,0,1,.25.19,1.24,1.24,0,0,1,.17.27,1,1,0,0,1,.06.33A.88.88,0,0,1,133.34,71Z"/><path class="cls-1" d="M138,72.81l0-.06-.45-.12v0a.72.72,0,0,1-.14.2.65.65,0,0,1-.21.16,1,1,0,0,1-.24.11,1.06,1.06,0,0,1-.66,0,1.21,1.21,0,0,1-.32-.22,1.13,1.13,0,0,1-.23-.34.88.88,0,0,1-.1-.36h2.52v0s0,0,0-.08V72a1.73,1.73,0,0,0-.11-.6,1.53,1.53,0,0,0-.32-.5,1.42,1.42,0,0,0-.48-.35,1.55,1.55,0,0,0-1.23,0,1.72,1.72,0,0,0-.49.34,1.69,1.69,0,0,0-.32.51,1.54,1.54,0,0,0-.11.61,1.57,1.57,0,0,0,.11.61,1.48,1.48,0,0,0,.32.51,1.42,1.42,0,0,0,.49.35,1.44,1.44,0,0,0,.62.13,1.54,1.54,0,0,0,.43-.06,1.58,1.58,0,0,0,.38-.15,1.81,1.81,0,0,0,.3-.25A.87.87,0,0,0,138,72.81Zm-.28-1h-2.06a1.08,1.08,0,0,1,.1-.35,1,1,0,0,1,.22-.33,1,1,0,0,1,.32-.21,1,1,0,0,1,.77,0,1,1,0,0,1,.55.54A1,1,0,0,1,137.67,71.77Z"/><path class="cls-1" d="M141.44,73.21a.34.34,0,0,0,.11.24.38.38,0,0,0,.27.09l.16,0h0v-.44H142c-.06,0-.09,0-.09-.1V71.63a1.21,1.21,0,0,0-.34-.91,1.24,1.24,0,0,0-.91-.33,2.1,2.1,0,0,0-1.15.4l0,0,.19.35.05,0a2.2,2.2,0,0,1,.47-.26,1.2,1.2,0,0,1,.45-.09.71.71,0,0,1,.57.22.79.79,0,0,1,.21.58v.19l-.35-.09a2.33,2.33,0,0,0-1,0,1.55,1.55,0,0,0-.41.19.88.88,0,0,0-.27.31.72.72,0,0,0-.1.38,1,1,0,0,0,.08.39,1.1,1.1,0,0,0,.22.31.93.93,0,0,0,.33.21,1.14,1.14,0,0,0,.41.07,1.58,1.58,0,0,0,.69-.15,1.44,1.44,0,0,0,.45-.31Zm-.06-1.07v.45a.29.29,0,0,1,0,.09.3.3,0,0,1-.07.1.89.89,0,0,1-.36.29,1.33,1.33,0,0,1-.54.11.8.8,0,0,1-.26-.05.58.58,0,0,1-.2-.13.62.62,0,0,1-.14-.19.6.6,0,0,1,0-.24.47.47,0,0,1,.23-.4,1.13,1.13,0,0,1,.64-.16,1.84,1.84,0,0,1,.41,0A1.9,1.9,0,0,1,141.38,72.14Z"/><path class="cls-1" d="M144.56,73l-.15,0-.14,0a.29.29,0,0,1-.22-.08.31.31,0,0,1-.07-.22V69.25h-.5v3.68a.59.59,0,0,0,.63.63l.28,0a1.58,1.58,0,0,0,.28-.08l0,0-.09-.42Z"/><rect class="cls-1" x="145.87" y="69.25" width="0.5" height="0.68"/><rect class="cls-1" x="145.87" y="70.45" width="0.5" height="3.08"/><path class="cls-1" d="M148.77,73.56a1,1,0,0,0,.24,0l.2,0,.15-.06.11,0,0,0-.14-.42-.06,0-.15.07a.76.76,0,0,1-.27,0,.31.31,0,0,1-.21-.07.22.22,0,0,1-.09-.19v-2h.68v-.41h-.68v-1h-.5v1h-.41v.41h.41v2.07a.78.78,0,0,0,0,.28.62.62,0,0,0,.16.2.53.53,0,0,0,.21.11A.75.75,0,0,0,148.77,73.56Z"/><path class="cls-1" d="M151.94,73l-1.05-2.48v0h-.52l1.31,3-.19.47-.12.27a.28.28,0,0,1-.1.1.38.38,0,0,1-.22,0h-.14v.45h.29a.65.65,0,0,0,.43-.13.74.74,0,0,0,.22-.31l1.54-3.83,0-.07h-.49Z"/><path class="cls-1" d="M159.05,71.94a.92.92,0,0,0,.32-.14,1.1,1.1,0,0,0,.29-.28,1.35,1.35,0,0,0,.19-.38,1.33,1.33,0,0,0,.07-.45,1.36,1.36,0,0,0-.09-.48,1.41,1.41,0,0,0-.26-.42,1.23,1.23,0,0,0-.4-.31,1.18,1.18,0,0,0-.5-.11H156.9v4.15h.51V72h1.11l.94,1.47,0,0h.58Zm.31-.92a1.06,1.06,0,0,1-.15.28.78.78,0,0,1-.24.2.65.65,0,0,1-.29.07h-1.27V69.83h1.23a.63.63,0,0,1,.3.07.88.88,0,0,1,.24.19,1,1,0,0,1,.17.27,1,1,0,0,1,.06.33A1.14,1.14,0,0,1,159.36,71Z"/><path class="cls-1" d="M163.75,70.87a1.57,1.57,0,0,0-.49-.35,1.51,1.51,0,0,0-.61-.13,1.6,1.6,0,0,0-.62.13,1.72,1.72,0,0,0-.49.34,1.77,1.77,0,0,0-.32.51,1.75,1.75,0,0,0,0,1.22,1.64,1.64,0,0,0,.32.51,1.52,1.52,0,0,0,.49.35,1.44,1.44,0,0,0,.62.13,1.54,1.54,0,0,0,.43-.06,1.44,1.44,0,0,0,.38-.15,1.48,1.48,0,0,0,.3-.25,1.06,1.06,0,0,0,.21-.31l0-.06-.44-.12,0,0a.56.56,0,0,1-.14.2.74.74,0,0,1-.2.16,1.12,1.12,0,0,1-.25.11,1.06,1.06,0,0,1-.66,0,1.21,1.21,0,0,1-.32-.22,1.36,1.36,0,0,1-.23-.34,1.07,1.07,0,0,1-.1-.36h2.52v0a.17.17,0,0,0,0-.08V72a1.73,1.73,0,0,0-.11-.6A1.69,1.69,0,0,0,163.75,70.87Zm-.07.9h-2.06a1.4,1.4,0,0,1,.1-.35,1,1,0,0,1,.22-.33,1,1,0,0,1,.32-.21,1.05,1.05,0,0,1,.78,0,1,1,0,0,1,.32.21,1,1,0,0,1,.22.33A.79.79,0,0,1,163.68,71.77Z"/><path class="cls-1" d="M167.89,73V71.63a1.24,1.24,0,0,0-.33-.91,1.26,1.26,0,0,0-.92-.33,2.1,2.1,0,0,0-1.15.4l0,0,.19.35.05,0a2.47,2.47,0,0,1,.47-.26,1.29,1.29,0,0,1,.45-.09.73.73,0,0,1,.78.8v.19l-.35-.09a2.51,2.51,0,0,0-1,0,1.72,1.72,0,0,0-.41.19,1.14,1.14,0,0,0-.27.31.8.8,0,0,0-.1.38,1,1,0,0,0,.08.39,1,1,0,0,0,1,.59,1.65,1.65,0,0,0,.69-.15,1.4,1.4,0,0,0,.44-.31v.09a.33.33,0,0,0,.1.24.4.4,0,0,0,.27.09l.16,0h0v-.44H168S167.89,73.05,167.89,73Zm-.5-.82v.44a.15.15,0,0,1,0,.09.2.2,0,0,1-.07.1.89.89,0,0,1-.36.29,1.32,1.32,0,0,1-.53.11.75.75,0,0,1-.26-.05.74.74,0,0,1-.21-.13.85.85,0,0,1-.14-.19.6.6,0,0,1-.05-.24.46.46,0,0,1,.24-.4,1.09,1.09,0,0,1,.63-.16,2,2,0,0,1,.42,0A1.4,1.4,0,0,1,167.39,72.15Z"/><path class="cls-1" d="M170.57,73l-.15,0a.36.36,0,0,1-.36-.06.31.31,0,0,1-.07-.22V69.25h-.5v3.68a.59.59,0,0,0,.63.63l.28,0a1.58,1.58,0,0,0,.28-.08l0,0-.09-.42Z"/><path class="cls-1" d="M172,72.93a.61.61,0,0,0,.05.28.75.75,0,0,0,.15.2.65.65,0,0,0,.22.11.75.75,0,0,0,.26,0,1,1,0,0,0,.24,0l.2,0,.15-.06a.3.3,0,0,0,.1,0l.05,0-.14-.42-.06,0-.16.07a.67.67,0,0,1-.26,0,.31.31,0,0,1-.21-.07.26.26,0,0,1-.1-.19v-2h.69v-.41h-.69v-1H172v1h-.42v.41H172Z"/><path class="cls-1" d="M175.76,74.35l1.54-3.83,0-.07h-.49l-1,2.51-1-2.48,0,0h-.52l1.32,3c-.08.2-.15.35-.19.47a1.72,1.72,0,0,1-.13.27.22.22,0,0,1-.09.1.38.38,0,0,1-.22,0h-.15v.45h.29a.63.63,0,0,0,.43-.13A.76.76,0,0,0,175.76,74.35Z"/><polygon class="cls-1" points="131.18 76.49 130.89 76.49 130.89 79.09 132.67 79.09 132.67 78.81 131.18 78.81 131.18 76.49"/><path class="cls-1" d="M135.88,77.79a1.72,1.72,0,0,1,0,.39,1.08,1.08,0,0,1-.13.33.66.66,0,0,1-.24.23.8.8,0,0,1-.39.09.75.75,0,0,1-.39-.09.88.88,0,0,1-.25-.22,1.2,1.2,0,0,1-.13-.33,2.58,2.58,0,0,1,0-.4v-1.3H134v1.3a2.44,2.44,0,0,0,.05.48,1.33,1.33,0,0,0,.18.42.93.93,0,0,0,.35.3,1,1,0,0,0,.52.12,1.13,1.13,0,0,0,.51-.11.89.89,0,0,0,.34-.3,1.14,1.14,0,0,0,.18-.42,1.93,1.93,0,0,0,.06-.49v-1.3h-.29Z"/><polygon class="cls-1" points="139.59 76.49 138.75 77.58 137.91 76.49 137.56 76.49 138.58 77.81 137.59 79.09 137.94 79.09 138.75 78.03 139.57 79.09 139.91 79.09 138.92 77.81 139.94 76.49 139.59 76.49"/><path class="cls-1" d="M143.23,77.79a2.58,2.58,0,0,1,0,.39,1.08,1.08,0,0,1-.13.33.66.66,0,0,1-.24.23.82.82,0,0,1-.4.09.74.74,0,0,1-.38-.09.67.67,0,0,1-.25-.22,1.2,1.2,0,0,1-.13-.33,1.75,1.75,0,0,1,0-.4v-1.3h-.29v1.3a2.44,2.44,0,0,0,0,.48,1.33,1.33,0,0,0,.18.42,1,1,0,0,0,.34.3,1.07,1.07,0,0,0,.53.12,1.13,1.13,0,0,0,.51-.11.89.89,0,0,0,.34-.3,1.33,1.33,0,0,0,.18-.42,1.93,1.93,0,0,0,.06-.49v-1.3h-.29Z"/><path class="cls-1" d="M146.77,78a.84.84,0,0,0,.2-.18.9.9,0,0,0,.12-.24,1,1,0,0,0,0-.29.8.8,0,0,0-.06-.3,1,1,0,0,0-.16-.26.79.79,0,0,0-.25-.19.64.64,0,0,0-.31-.07h-1.09v2.6h.29v-.94h.72l.6.94h.34l-.63-1A.71.71,0,0,0,146.77,78Zm-1.21-1.26h.79a.41.41,0,0,1,.19,0,.65.65,0,0,1,.16.13.62.62,0,0,1,.11.17.52.52,0,0,1,0,.21.49.49,0,0,1,0,.21.51.51,0,0,1-.09.18.93.93,0,0,1-.15.13.42.42,0,0,1-.2,0h-.81Z"/><polygon class="cls-1" points="149.57 77.82 148.73 76.49 148.41 76.49 149.43 78.1 149.43 79.09 149.72 79.09 149.72 78.11 150.75 76.49 150.41 76.49 149.57 77.82"/><path class="cls-1" d="M156.07,76.87a1,1,0,0,0-.39-.28,1.33,1.33,0,0,0-.54-.1h-.88v2.6h.88a1.19,1.19,0,0,0,.51-.1,1.16,1.16,0,0,0,.39-.26,1.22,1.22,0,0,0,.25-.41,1.53,1.53,0,0,0,.09-.54,1.69,1.69,0,0,0-.08-.5A1.27,1.27,0,0,0,156.07,76.87Zm0,.91a1.42,1.42,0,0,1-.06.42,1.13,1.13,0,0,1-.19.32.72.72,0,0,1-.29.22,1.07,1.07,0,0,1-.41.08h-.59V76.76h.59a.91.91,0,0,1,.41.08.86.86,0,0,1,.29.21.83.83,0,0,1,.18.32A1.07,1.07,0,0,1,156.09,77.78Z"/><rect class="cls-1" x="158" y="76.49" width="0.29" height="2.6"/><polygon class="cls-1" points="161 78.66 160.09 76.49 159.78 76.49 160.88 79.09 161.12 79.09 162.19 76.56 162.22 76.49 161.91 76.49 161 78.66"/><rect class="cls-1" x="163.71" y="76.49" width="0.29" height="2.6"/><path class="cls-1" d="M167.31,77.88a1,1,0,0,0-.29-.13l-.36-.1-.33-.08a.51.51,0,0,1-.21-.09.23.23,0,0,1-.11-.11.29.29,0,0,1,0-.17.4.4,0,0,1,.15-.33.72.72,0,0,1,.49-.13.83.83,0,0,1,.64.25l.05.06.16-.24,0,0a1.07,1.07,0,0,0-.37-.24,1.25,1.25,0,0,0-.45-.07,1.44,1.44,0,0,0-.37,0,.83.83,0,0,0-.3.14.72.72,0,0,0-.19.24.66.66,0,0,0-.07.32.74.74,0,0,0,0,.28.57.57,0,0,0,.18.2.85.85,0,0,0,.27.12,1.58,1.58,0,0,0,.36.09l.34.09a1,1,0,0,1,.23.1.49.49,0,0,1,.12.13.34.34,0,0,1,0,.18.36.36,0,0,1-.15.32,1,1,0,0,1-.48.11,1.26,1.26,0,0,1-.49-.09,1.1,1.1,0,0,1-.37-.25l-.05,0-.16.24,0,0a1.43,1.43,0,0,0,1,.39,1.52,1.52,0,0,0,.38,0,.86.86,0,0,0,.29-.13.53.53,0,0,0,.2-.22.66.66,0,0,0,.08-.32.7.7,0,0,0-.07-.3A.66.66,0,0,0,167.31,77.88Z"/><rect class="cls-1" x="169.16" y="76.49" width="0.29" height="2.6"/><path class="cls-1" d="M173.18,76.89a1.27,1.27,0,0,0-.39-.3,1.11,1.11,0,0,0-1,0,1.33,1.33,0,0,0-.38.29,1.29,1.29,0,0,0-.26.42,1.43,1.43,0,0,0-.09.5,1.32,1.32,0,0,0,.09.48,1.24,1.24,0,0,0,.24.42,1.14,1.14,0,0,0,.39.3,1.06,1.06,0,0,0,.5.12,1.13,1.13,0,0,0,.48-.11,1.42,1.42,0,0,0,.39-.29,1.29,1.29,0,0,0,.26-.42,1.43,1.43,0,0,0,.09-.5,1.46,1.46,0,0,0-.33-.9Zm0,.9a1.27,1.27,0,0,1-.07.38,1,1,0,0,1-.19.33,1,1,0,0,1-.29.24.79.79,0,0,1-.38.09.92.92,0,0,1-.67-.32.89.89,0,0,1-.19-.33,1.07,1.07,0,0,1-.07-.39,1.21,1.21,0,0,1,.06-.38,1.05,1.05,0,0,1,.2-.34,1,1,0,0,1,.29-.24.92.92,0,0,1,.38-.08.75.75,0,0,1,.37.08,1.09,1.09,0,0,1,.29.23,1.38,1.38,0,0,1,.2.33A1.34,1.34,0,0,1,173.22,77.79Z"/><polygon class="cls-1" points="177.01 78.58 175.36 76.51 175.35 76.49 175.13 76.49 175.13 79.09 175.42 79.09 175.42 77.04 177.04 79.07 177.05 79.09 177.3 79.09 177.3 76.49 177.01 76.49 177.01 78.58"/></svg>