<svg id="Layer_1" data-name="Layer 1" xmlns="http://www.w3.org/2000/svg" viewBox="0 0 50 50"><defs><style>.cls-1{fill:none;stroke:#000;stroke-linecap:round;stroke-linejoin:round;stroke-width:1.38px;}</style></defs><title>mobile_landing_icon</title><path class="cls-1" d="M14.25,10.21h6.33A2.79,2.79,0,0,1,23.37,13v4.1a0,0,0,0,1,0,0H11.46a0,0,0,0,1,0,0V13a2.79,2.79,0,0,1,2.79-2.79Z" transform="translate(14.75 -8.32) rotate(45)"/><path class="cls-1" d="M10.77,11.88s-8.69,7.37,5.65,21.7"/><path class="cls-1" d="M19.19,20.3s-4.38,2.94,1.59,8.92"/><path class="cls-1" d="M30.39,29.14H42.3a0,0,0,0,1,0,0v4.1A2.79,2.79,0,0,1,39.51,36H33.18a2.79,2.79,0,0,1-2.79-2.79v-4.1A0,0,0,0,1,30.39,29.14Z" transform="translate(39.01 81.33) rotate(-135)"/><path class="cls-1" d="M38.12,39.23s-7.37,8.69-21.7-5.65"/><path class="cls-1" d="M29.7,30.81s-2.94,4.38-8.92-1.59"/></svg>