<svg id="Layer_1" data-name="Layer 1" xmlns="http://www.w3.org/2000/svg" viewBox="0 0 295 83"><defs><style>.cls-1{font-size:25.22px;}.cls-1,.cls-2,.cls-8{fill:#fff;}.cls-1,.cls-2{font-family:TrebuchetMS-Bold, Trebuchet MS;font-weight:700;}.cls-2{font-size:10.51px;}.cls-3{letter-spacing:-0.06em;}.cls-4{letter-spacing:-0.02em;}.cls-5{letter-spacing:-0.07em;}.cls-6{letter-spacing:-0.02em;}.cls-7{letter-spacing:0em;}</style></defs><title>New_developments_white</title><text class="cls-1" transform="translate(64.62 44.51)">New Developments</text><text class="cls-2" transform="translate(66.71 57.29)"><tspan class="cls-3">A</tspan><tspan x="6.08" y="0" xml:space="preserve"> REALIT</tspan><tspan class="cls-4" x="43.46" y="0">Y</tspan><tspan x="49.72" y="0" xml:space="preserve"> REA</tspan><tspan class="cls-5" x="71.94" y="0">L</tspan><tspan x="76.97" y="0">T</tspan><tspan class="cls-6" x="83.4" y="0">Y</tspan><tspan class="cls-7" x="89.66" y="0" xml:space="preserve"> DIVISION</tspan></text><path class="cls-8" d="M39.59,39.77a2.11,2.11,0,0,0,0,4.21h6.5V39.77Z"/><path class="cls-8" d="M57.91,36.31,33.07,24.65a2,2,0,0,0-1.64,0L6.59,36.31A3.35,3.35,0,0,0,8.18,42.6V54.3a3,3,0,0,0,3,3H53.33a3,3,0,0,0,3-3V42.6a3.35,3.35,0,0,0,1.59-6.29ZM50.7,52.78A1.19,1.19,0,0,1,49.51,54H47.28a1.19,1.19,0,0,1-1.2-1.19V47.41H42.94a3.18,3.18,0,0,0-2.63,1.4l-2.78,4.13a2.34,2.34,0,0,1-1.94,1H28.91a2.34,2.34,0,0,1-1.94-1l-2.78-4.13a3.16,3.16,0,0,0-2.63-1.4H18.42v5.37A1.19,1.19,0,0,1,17.22,54H15a1.19,1.19,0,0,1-1.19-1.19V37.31A1.19,1.19,0,0,1,15,36.11H25.44a7.61,7.61,0,0,1,4.76,1.72,5,5,0,0,1,1.48,4,4.66,4.66,0,0,1-1.28,3.07,4.73,4.73,0,0,1-3.31,1.35,2.37,2.37,0,0,1,1.72,1.22l3.44,5.11,3.44-5.11a2.37,2.37,0,0,1,1.72-1.22,4.73,4.73,0,0,1-3.31-1.35,4.66,4.66,0,0,1-1.28-3.07,5,5,0,0,1,1.48-4,7.61,7.61,0,0,1,4.76-1.72H49.51a1.19,1.19,0,0,1,1.19,1.2Z"/><path class="cls-8" d="M24.91,39.77H18.43V44h6.5a2.11,2.11,0,0,0,0-4.21Z"/></svg>