<svg id="Layer_1" data-name="Layer 1" xmlns="http://www.w3.org/2000/svg" viewBox="0 0 50 50"><defs><style>.cls-1{fill:none;stroke:#000;stroke-linecap:round;stroke-linejoin:round;stroke-width:1.58px;}</style></defs><title>reposeida_icon</title><path class="cls-1" d="M20.58,18.9,8.55,31a.65.65,0,0,0-.19.45V43.86A.64.64,0,0,0,9,44.5H32.4a.65.65,0,0,0,.65-.64V31.47a.65.65,0,0,0-.19-.45l-12-12.12C20.58,18.64,20.83,18.64,20.58,18.9Z"/><rect class="cls-1" x="17.4" y="35.74" width="6.62" height="8.76" rx="0.72"/><line class="cls-1" x1="5.55" y1="33.65" x2="20.58" y2="18.9"/><line class="cls-1" x1="35.68" y1="33.65" x2="20.65" y2="18.9"/><circle class="cls-1" cx="31.56" cy="18.39" r="0.69"/><path class="cls-1" d="M23.81,21.9A10.2,10.2,0,0,1,25,20.55c2.42-2.42,5.52-3.25,6.92-1.85"/><path class="cls-1" d="M32.12,22.55A9.64,9.64,0,0,1,30,25.62c-2.42,2.42-5.52,3.24-6.92,1.84"/><path class="cls-1" d="M36.57,5.64l7.74,7.74a.46.46,0,0,1,0,.67l-8.26,8.27a.47.47,0,0,1-.33.14l-7.89.15a.48.48,0,0,1-.48-.49l.14-7.89a.52.52,0,0,1,.14-.32L35.9,5.64A.46.46,0,0,1,36.57,5.64Z"/></svg>