<svg id="Layer_1" data-name="Layer 1" xmlns="http://www.w3.org/2000/svg" viewBox="0 0 295 83"><defs><style>.cls-1{font-size:19.34px;font-family:AvenirNext-Regular, Avenir Next;letter-spacing:0.1em;}.cls-1,.cls-6{fill:#fff;}.cls-2,.cls-3,.cls-4,.cls-5{font-family:AvenirNext-DemiBold, Avenir Next;font-weight:300;}.cls-3{letter-spacing:0.08em;}.cls-4{letter-spacing:0.04em;}.cls-5{letter-spacing:0.08em;}</style></defs><title>reposubasta_white</title><text class="cls-1" transform="translate(69.04 78.47)">REPO<tspan class="cls-2" x="58.41" y="0">SUBA</tspan><tspan class="cls-3" x="117.21" y="0">S</tspan><tspan class="cls-4" x="129.94" y="0">T</tspan><tspan class="cls-5" x="141.69" y="0">A</tspan></text><path class="cls-6" d="M135.48,3.75l0,0Z"/><path class="cls-6" d="M135.59,3.57l0,0Z"/><path class="cls-6" d="M136,3.41h0Z"/><path class="cls-6" d="M135.77,3.45h0Z"/><polygon class="cls-6" points="124.93 52.16 124.93 52.16 134.34 49.66 134.34 49.66 124.93 52.16"/><polygon class="cls-6" points="142.48 47.5 135.45 49.37 135.45 49.37 142.48 47.5 142.48 47.5"/><polygon class="cls-6" points="143.58 47.2 145.69 46.65 143.58 47.2 143.58 47.2"/><polygon class="cls-6" points="135.45 49.37 135.45 49.37 142.48 47.5 142.48 47.5 135.45 49.37"/><polygon class="cls-6" points="143.58 47.2 145.69 46.65 143.58 47.2 143.58 47.2"/><polygon class="cls-6" points="142.48 47.5 143.58 47.2 143.58 47.2 142.48 47.5 142.48 47.5"/><path class="cls-6" d="M142.48,20.76a1.58,1.58,0,0,1,1.39-1.49l11.74-2.1V9.86a.55.55,0,0,0-.38-.52L136.12,3.43l-.14,0h0l-.17,0h0a.56.56,0,0,0-.15.1l0,0a.38.38,0,0,0-.09.15l0,0a.52.52,0,0,0,0,.18V37.42l7-1.28Z"/><path class="cls-6" d="M144.46,20.29l11.15,5.15,1.11.52,4.25,2V18h0a.5.5,0,0,0-.05-.21s0,0,0-.06a.31.31,0,0,0-.09-.11l-.08-.05-.12-.06-.1,0h-.2l-3.56.64-1.11.19Z"/><path class="cls-6" d="M156.72,27.18l-1.11-.52L144,21.28l-.12-.07a.59.59,0,0,1-.26-.45V35.94l12-2.2,1.11-.2,4.25-.78,1.11-.2,4.51-.82-4.51-2.08L161,29.14Z"/><path class="cls-6" d="M167.49,32.52a.14.14,0,0,1-.09.12l-.09,0a1.92,1.92,0,0,1-.37.11h0l-4.83.88-1.11.2-4.25.78-1.11.2-12,2.19-1.1.21-7,1.28-1.11.2-8.8,1.61a.76.76,0,0,0-.44.24.63.63,0,0,0-.17.43V52.16l9.41-2.5,1.11-.29,7-1.87,1.1-.3,2.11-.56,9.92,2.64,1.11.3L161,50.71l1.11.29,5.41,1.44h0Z"/><path class="cls-6" d="M145.69,48,107.21,58.27a.54.54,0,0,0-.41.54v1.66l38.89-6.17,38.89,6.17V58.8a.54.54,0,0,0-.42-.53Z"/></svg>