<svg id="Layer_1" data-name="Layer 1" xmlns="http://www.w3.org/2000/svg" viewBox="0 0 50 50"><defs><style>.cls-1{fill:#d92726;}.cls-2{fill:#fff;}</style></defs><title>rr_icon</title><path class="cls-1" d="M25,38.63H7.48A2.48,2.48,0,0,1,5,36.15V26.43a2.78,2.78,0,0,1-1.32-5.22l20.64-9.69a1.55,1.55,0,0,1,1.36,0l20.64,9.69A2.78,2.78,0,0,1,45,26.43v9.72a2.48,2.48,0,0,1-2.48,2.48H25"/><path class="cls-2" d="M40.45,22.12V35a1,1,0,0,1-1,1H37.61a1,1,0,0,1-1-1V30.52H34a2.64,2.64,0,0,0-2.19,1.17l-2.3,3.42A1.94,1.94,0,0,1,27.9,36H22.34a1.93,1.93,0,0,1-1.61-.86l-2.31-3.42a2.61,2.61,0,0,0-2.18-1.17H13.63V35a1,1,0,0,1-1,1H10.78a1,1,0,0,1-1-1V22.12a1,1,0,0,1,1-1h8.68a6.31,6.31,0,0,1,3.95,1.43,4,4,0,0,1,1.25,3,2.81,2.81,0,0,1,0,.36,3.84,3.84,0,0,1-1.06,2.55,3.92,3.92,0,0,1-2.75,1.12,2,2,0,0,1,1.43,1l2.86,4.25L28,30.6a2,2,0,0,1,1.44-1,3.74,3.74,0,0,1-3.82-3.67,2.55,2.55,0,0,1,0-.35,4,4,0,0,1,1.25-3,6.31,6.31,0,0,1,3.95-1.43h8.69A1,1,0,0,1,40.45,22.12Zm-3.84,5.55v-3.5H31.22a1.75,1.75,0,0,0,0,3.5ZM20.77,25.92A1.75,1.75,0,0,0,19,24.17H13.64v3.5H19A1.74,1.74,0,0,0,20.77,25.92Z"/></svg>