<svg id="Layer_1" data-name="Layer 1" xmlns="http://www.w3.org/2000/svg" viewBox="0 0 50 50"><defs><style>.cls-1{fill:none;stroke:#fff;stroke-linecap:round;stroke-linejoin:round;stroke-width:1.89px;}</style></defs><title>specialized_icon</title><line class="cls-1" x1="1.56" y1="45.56" x2="48.44" y2="45.56"/><rect class="cls-1" x="5.86" y="8.25" width="16.89" height="37.31"/><rect class="cls-1" x="8.38" y="4.44" width="11.85" height="3.81"/><line class="cls-1" x1="10.18" y1="21.53" x2="10.18" y2="23.58"/><line class="cls-1" x1="10.18" y1="16.81" x2="10.18" y2="18.85"/><line class="cls-1" x1="10.18" y1="26.26" x2="10.18" y2="28.31"/><line class="cls-1" x1="10.18" y1="30.99" x2="10.18" y2="33.04"/><line class="cls-1" x1="10.18" y1="35.71" x2="10.18" y2="37.76"/><line class="cls-1" x1="10.18" y1="40.44" x2="10.18" y2="42.49"/><line class="cls-1" x1="14.28" y1="21.53" x2="14.28" y2="23.58"/><line class="cls-1" x1="14.28" y1="16.81" x2="14.28" y2="18.85"/><line class="cls-1" x1="14.28" y1="26.26" x2="14.28" y2="28.31"/><line class="cls-1" x1="14.28" y1="30.99" x2="14.28" y2="33.04"/><line class="cls-1" x1="14.28" y1="35.71" x2="14.28" y2="37.76"/><line class="cls-1" x1="14.28" y1="40.44" x2="14.28" y2="42.49"/><line class="cls-1" x1="18.17" y1="21.53" x2="18.17" y2="23.58"/><line class="cls-1" x1="18.17" y1="16.81" x2="18.17" y2="18.85"/><line class="cls-1" x1="18.17" y1="26.26" x2="18.17" y2="28.31"/><line class="cls-1" x1="18.17" y1="30.99" x2="18.17" y2="33.04"/><line class="cls-1" x1="18.17" y1="35.71" x2="18.17" y2="37.76"/><line class="cls-1" x1="18.17" y1="40.44" x2="18.17" y2="42.49"/><line class="cls-1" x1="10.18" y1="12.08" x2="10.18" y2="14.13"/><line class="cls-1" x1="14.28" y1="12.08" x2="14.28" y2="14.13"/><line class="cls-1" x1="18.17" y1="12.08" x2="18.17" y2="14.13"/><rect class="cls-1" x="27.25" y="8.25" width="16.89" height="37.31"/><rect class="cls-1" x="29.77" y="4.44" width="11.85" height="3.81"/><line class="cls-1" x1="31.57" y1="21.53" x2="31.57" y2="23.58"/><line class="cls-1" x1="31.57" y1="16.81" x2="31.57" y2="18.85"/><line class="cls-1" x1="31.57" y1="26.26" x2="31.57" y2="28.31"/><line class="cls-1" x1="31.57" y1="30.99" x2="31.57" y2="33.04"/><line class="cls-1" x1="31.57" y1="35.71" x2="31.57" y2="37.76"/><line class="cls-1" x1="31.57" y1="40.44" x2="31.57" y2="42.49"/><line class="cls-1" x1="35.67" y1="21.53" x2="35.67" y2="23.58"/><line class="cls-1" x1="35.67" y1="16.81" x2="35.67" y2="18.85"/><line class="cls-1" x1="35.67" y1="26.26" x2="35.67" y2="28.31"/><line class="cls-1" x1="35.67" y1="30.99" x2="35.67" y2="33.04"/><line class="cls-1" x1="35.67" y1="35.71" x2="35.67" y2="37.76"/><line class="cls-1" x1="35.67" y1="40.44" x2="35.67" y2="42.49"/><line class="cls-1" x1="39.55" y1="21.53" x2="39.55" y2="23.58"/><line class="cls-1" x1="39.55" y1="16.81" x2="39.55" y2="18.85"/><line class="cls-1" x1="39.55" y1="26.26" x2="39.55" y2="28.31"/><line class="cls-1" x1="39.55" y1="30.99" x2="39.55" y2="33.04"/><line class="cls-1" x1="39.55" y1="35.71" x2="39.55" y2="37.76"/><line class="cls-1" x1="39.55" y1="40.44" x2="39.55" y2="42.49"/><line class="cls-1" x1="31.57" y1="12.08" x2="31.57" y2="14.13"/><line class="cls-1" x1="35.67" y1="12.08" x2="35.67" y2="14.13"/><line class="cls-1" x1="39.55" y1="12.08" x2="39.55" y2="14.13"/></svg>