<svg id="Layer_1" data-name="Layer 1" xmlns="http://www.w3.org/2000/svg" viewBox="0 0 50 50"><defs><style>.cls-1{fill:none;stroke:#000;stroke-linecap:round;stroke-linejoin:round;stroke-width:1.58px;}</style></defs><title>square_meters_icon</title><line class="cls-1" x1="18.63" y1="12.21" x2="41.28" y2="12.21"/><line class="cls-1" x1="10.75" y1="39.65" x2="10.75" y2="17"/><rect class="cls-1" x="18.63" y="17" width="22.65" height="22.65"/><line class="cls-1" x1="12.43" y1="17" x2="8.72" y2="17"/><line class="cls-1" x1="12.43" y1="39.65" x2="8.72" y2="39.65"/><line class="cls-1" x1="41.28" y1="14.06" x2="41.28" y2="10.35"/><line class="cls-1" x1="18.63" y1="14.06" x2="18.63" y2="10.35"/><path d="M23.35,25.66h1.57v.88a2.53,2.53,0,0,1,2-1,2.14,2.14,0,0,1,1.07.25,1.92,1.92,0,0,1,.75.77,3,3,0,0,1,.92-.77,2.2,2.2,0,0,1,1-.25,2.37,2.37,0,0,1,1.2.28,1.79,1.79,0,0,1,.73.85A3.63,3.63,0,0,1,32.83,28v4.12H31.12V28.42A2.67,2.67,0,0,0,31,27.19a.8.8,0,0,0-.73-.37,1.12,1.12,0,0,0-.67.22,1.17,1.17,0,0,0-.46.64A4.73,4.73,0,0,0,29,29v3.1h-1.7V28.57a4.33,4.33,0,0,0-.1-1.21.78.78,0,0,0-.28-.41,1,1,0,0,0-.52-.13,1.26,1.26,0,0,0-.71.21,1.2,1.2,0,0,0-.45.62A4.53,4.53,0,0,0,25.05,29v3.13h-1.7Z"/><path d="M37.47,26.74v1H33.79a2.07,2.07,0,0,1,.33-.93,5.86,5.86,0,0,1,1.18-1.13,6.24,6.24,0,0,0,.83-.71.79.79,0,0,0,.19-.47.46.46,0,0,0-.15-.36A.69.69,0,0,0,35.7,24a.64.64,0,0,0-.46.15.86.86,0,0,0-.18.55l-1.15-.1a1.65,1.65,0,0,1,.45-1,2.05,2.05,0,0,1,1.38-.43,1.91,1.91,0,0,1,1.29.39,1.19,1.19,0,0,1,.44.92,1.51,1.51,0,0,1-.14.62,2.43,2.43,0,0,1-.44.61c-.11.1-.38.33-.82.68a4.78,4.78,0,0,0-.5.42Z"/></svg>