<svg id="Layer_1" data-name="Layer 1" xmlns="http://www.w3.org/2000/svg" viewBox="0 0 50 50"><defs><style>.cls-1{fill:none;stroke:#000;stroke-linecap:round;stroke-linejoin:round;stroke-width:1.58px;}</style></defs><title>square_feet_icon</title><line class="cls-1" x1="18.63" y1="12.21" x2="41.28" y2="12.21"/><line class="cls-1" x1="10.75" y1="39.65" x2="10.75" y2="17"/><rect class="cls-1" x="18.63" y="17" width="22.65" height="22.65"/><line class="cls-1" x1="12.43" y1="17" x2="8.72" y2="17"/><line class="cls-1" x1="12.43" y1="39.65" x2="8.72" y2="39.65"/><line class="cls-1" x1="41.28" y1="14.06" x2="41.28" y2="10.35"/><line class="cls-1" x1="18.63" y1="14.06" x2="18.63" y2="10.35"/><path d="M24.34,25.8h.94v-.48a3.13,3.13,0,0,1,.18-1.22,1.36,1.36,0,0,1,.63-.65,2.43,2.43,0,0,1,1.18-.25,4.58,4.58,0,0,1,1.42.22l-.23,1.19a3.09,3.09,0,0,0-.78-.1.7.7,0,0,0-.53.17,1,1,0,0,0-.16.67v.45h1.27v1.34H27v5.11H25.28V27.14h-.94Z"/><path d="M33.18,25.8v1.36H32v2.6a7.18,7.18,0,0,0,0,.92.37.37,0,0,0,.16.21.45.45,0,0,0,.28.09,2.24,2.24,0,0,0,.69-.17l.15,1.33a3.42,3.42,0,0,1-1.35.25,2.16,2.16,0,0,1-.83-.15,1.33,1.33,0,0,1-.55-.4,1.81,1.81,0,0,1-.24-.67A9.68,9.68,0,0,1,30.3,30V27.16h-.78V25.8h.78V24.52l1.71-1V25.8Z"/><path d="M37.3,26.88v.95H33.62a2.08,2.08,0,0,1,.33-.92,5.86,5.86,0,0,1,1.18-1.13,6.24,6.24,0,0,0,.83-.71.73.73,0,0,0,.19-.47.46.46,0,0,0-.15-.36.68.68,0,0,0-.46-.13.62.62,0,0,0-.46.15.81.81,0,0,0-.19.55l-1.15-.1a1.6,1.6,0,0,1,.46-1,2,2,0,0,1,1.37-.43,1.91,1.91,0,0,1,1.29.39,1.19,1.19,0,0,1,.44.92,1.37,1.37,0,0,1-.14.62,2.43,2.43,0,0,1-.44.61c-.11.1-.38.33-.82.68a6.17,6.17,0,0,0-.5.42Z"/></svg>