<svg xmlns="http://www.w3.org/2000/svg" viewBox="0 0 472.57 252.31"><defs><style>.cls-1{fill:#df554d;}.cls-2{fill:none;stroke:#df554d;stroke-linecap:round;stroke-miterlimit:10;stroke-width:19px;}</style></defs><g id="Layer_2" data-name="Layer 2"><g id="Layer_2-2" data-name="Layer 2"><path class="cls-1" d="M182.66,252.31H179l.14-.27A30.24,30.24,0,0,0,182.66,252.31ZM193,52.55a9.4,9.4,0,0,0-9.38-9.38H54.82a9.41,9.41,0,0,0-9.38,9.38v1.09A9.4,9.4,0,0,0,54.82,63H183.63A9.4,9.4,0,0,0,193,53.64Zm-41,75.06a9.41,9.41,0,0,0-9.38-9.38H9.38A9.41,9.41,0,0,0,0,127.61v1.09a9.4,9.4,0,0,0,9.38,9.37H142.65A9.41,9.41,0,0,0,152,128.7Zm20.8,72a9.4,9.4,0,0,0-9.38-9.38H91.94a9.39,9.39,0,0,0-9.38,9.38v1.08A9.4,9.4,0,0,0,91.94,210h71.51a9.41,9.41,0,0,0,9.38-9.38Z"/><path class="cls-2" d="M209.53,200.34H426.35A17.37,17.37,0,0,0,443.72,183v-68A19.48,19.48,0,0,0,453,78.37L308.5,10.56a11.17,11.17,0,0,0-9.49,0l-61.37,28.8"/><circle class="cls-2" cx="305.97" cy="117.04" r="52.37"/><line class="cls-2" x1="305.24" y1="89.88" x2="305.24" y2="116.3"/><line class="cls-2" x1="331.58" y1="116.3" x2="305.24" y2="116.3"/></g></g></svg>