<svg xmlns="http://www.w3.org/2000/svg" viewBox="0 0 28.61 15.29"><defs><style>.cls-1{fill:#b2473d;}.cls-2{fill:none;stroke:#cb463b;stroke-linecap:round;stroke-miterlimit:10;stroke-width:1.2px;}</style></defs><g id="Layer_2" data-name="Layer 2"><g id="Layer_2-2" data-name="Layer 2"><path class="cls-1" d="M11.05,15.29h-.22v0ZM11.67,3.2a.56.56,0,0,0-.56-.56H3.32a.56.56,0,0,0-.57.56v.07a.57.57,0,0,0,.57.57h7.79a.57.57,0,0,0,.56-.57ZM9.2,7.74a.57.57,0,0,0-.57-.56H.57A.57.57,0,0,0,0,7.74v.07a.58.58,0,0,0,.57.57H8.63a.58.58,0,0,0,.57-.57Zm1.25,4.36a.56.56,0,0,0-.56-.57H5.56A.57.57,0,0,0,5,12.1v.06a.58.58,0,0,0,.57.57H9.89a.57.57,0,0,0,.56-.57Z"/><path class="cls-2" d="M12.67,12.14H25.79a1,1,0,0,0,1.05-1.05V7A1.19,1.19,0,0,0,28,5.79a1.17,1.17,0,0,0-.61-1L18.66.66a.71.71,0,0,0-.57,0L14.38,2.41"/><circle class="cls-2" cx="18.51" cy="7.11" r="3.17"/><line class="cls-2" x1="18.46" y1="5.46" x2="18.46" y2="7.06"/><line class="cls-2" x1="20.06" y1="7.06" x2="18.46" y2="7.06"/></g></g></svg>