<svg id="Layer_1" data-name="Layer 1" xmlns="http://www.w3.org/2000/svg" viewBox="0 0 185.16 185.16"><defs><style>.cls-1{fill:#f7f7f7;}.cls-2{fill:none;stroke:#ef3a3a;stroke-linecap:round;stroke-linejoin:round;stroke-width:1.5px;}</style></defs><title>auction_icon</title><circle class="cls-1" cx="92.58" cy="92.58" r="92.58"/><path class="cls-2" d="M42.52,65.26,72.27,35.5c.38-.37,1.31,0,2.08.74l3.85,3.84c.77.78,1.1,1.71.73,2.08L49.17,71.92c-.37.37-1.3,0-2.08-.73l-3.84-3.85C42.47,66.56,42.14,65.63,42.52,65.26Z"/><path class="cls-2" d="M73.05,95.8,102.81,66c.37-.37,1.3,0,2.08.73l3.84,3.85c.78.77,1.11,1.7.73,2.08L79.71,102.45c-.37.37-1.31,0-2.08-.73l-3.85-3.84C73,97.1,72.68,96.17,73.05,95.8Z"/><rect class="cls-2" x="57.99" y="52.09" width="36" height="33.77" transform="translate(-26.52 73.94) rotate(-45)"/><path class="cls-2" d="M23.77,91.31H68.25a0,0,0,0,1,0,0v11.6a0,0,0,0,1,0,0H23.77a5.8,5.8,0,0,1-5.8-5.8v0a5.8,5.8,0,0,1,5.8-5.8Z" transform="translate(-56.04 58.93) rotate(-45)"/><path class="cls-2" d="M118.64,78.5l-27.78,28a1.46,1.46,0,0,0-.43,1v28.61a1.48,1.48,0,0,0,1.48,1.48H146a1.48,1.48,0,0,0,1.48-1.48V107.55a1.5,1.5,0,0,0-.43-1l-27.78-28C118.66,77.91,119.22,77.91,118.64,78.5Z"/><rect class="cls-2" x="111.3" y="117.41" width="15.29" height="20.23" rx="1.51"/><line class="cls-2" x1="83.92" y1="112.59" x2="118.64" y2="78.5"/><line class="cls-2" x1="153.54" y1="112.59" x2="118.82" y2="78.5"/></svg>