<svg id="Layer_1" data-name="Layer 1" xmlns="http://www.w3.org/2000/svg" viewBox="0 0 185.16 185.16"><defs><style>.cls-1{fill:#f7f7f7;}.cls-2{fill:none;stroke:#ef3a3a;stroke-linecap:round;stroke-linejoin:round;stroke-width:1.5px;}</style></defs><title>commercial_icon</title><circle class="cls-1" cx="92.58" cy="92.58" r="92.58"/><rect class="cls-2" x="66.52" y="59.52" width="56.31" height="74.67"/><rect class="cls-2" x="39.83" y="72.24" width="26.69" height="61.96" transform="translate(106.35 206.44) rotate(180)"/><rect class="cls-2" x="77.21" y="46.24" width="34.93" height="13.29"/><line class="cls-2" x1="94.67" y1="46.24" x2="94.67" y2="34.29"/><rect class="cls-2" x="73.76" y="70.37" width="10.08" height="8.28"/><rect class="cls-2" x="89.45" y="70.37" width="10.08" height="8.28"/><rect class="cls-2" x="105.14" y="70.37" width="10.08" height="8.28"/><rect class="cls-2" x="73.76" y="86.37" width="10.08" height="8.28"/><rect class="cls-2" x="89.45" y="86.37" width="10.08" height="8.28"/><rect class="cls-2" x="105.14" y="86.37" width="10.08" height="8.28"/><rect class="cls-2" x="73.76" y="102.36" width="10.08" height="8.28"/><rect class="cls-2" x="89.45" y="102.36" width="10.08" height="8.28"/><rect class="cls-2" x="105.14" y="102.36" width="10.08" height="8.28"/><rect class="cls-2" x="73.76" y="118.36" width="10.08" height="8.28"/><rect class="cls-2" x="89.45" y="118.36" width="10.08" height="8.28"/><rect class="cls-2" x="105.14" y="118.36" width="10.08" height="8.28"/><line class="cls-2" x1="49.64" y1="81.39" x2="49.64" y2="124.07"/><line class="cls-2" x1="57.48" y1="81.39" x2="57.48" y2="124.07"/><rect class="cls-2" x="122.83" y="72.24" width="26.69" height="61.96"/><line class="cls-2" x1="139.7" y1="81.39" x2="139.7" y2="124.07"/><line class="cls-2" x1="131.86" y1="81.39" x2="131.86" y2="124.07"/><line class="cls-2" x1="33.26" y1="134.2" x2="156.56" y2="134.2"/></svg>