<svg id="Layer_1" data-name="Layer 1" xmlns="http://www.w3.org/2000/svg" viewBox="0 0 185.16 185.16"><defs><style>.cls-1,.cls-3{fill:#f7f7f7;}.cls-2{fill:none;}.cls-2,.cls-3{stroke:#ef3a3a;stroke-linecap:round;stroke-linejoin:round;stroke-width:1.5px;}</style></defs><title>consulting_icon</title><circle class="cls-1" cx="92.58" cy="92.58" r="92.58"/><path class="cls-2" d="M96.43,80.31H39.19c-1.57,0-2.33,1.29-2.33,2.86v48.15c0,2.45,3.81,3.27,5.65,1.65L55.3,122H96.43c1.56,0,2-.31,2-1.88V83.17C98.4,81.6,98,80.31,96.43,80.31Z"/><path class="cls-2" d="M74.58,80.31V62.63c0-1.8.62-2.17,2.42-2.17h65.16c1.8,0,1.89.37,1.89,2.17V118c0,2.81-2.63,4.18-4.74,2.32l-13-12.19H98.4"/><line class="cls-2" x1="50.76" y1="94.2" x2="82.52" y2="94.2"/><line class="cls-2" x1="50.76" y1="102.14" x2="82.52" y2="102.14"/><line class="cls-2" x1="50.76" y1="110.08" x2="82.52" y2="110.08"/><path class="cls-3" d="M108.62,86.64a5.33,5.33,0,1,0,3.79,1.56A5.15,5.15,0,0,0,108.62,86.64Z"/><path class="cls-3" d="M121.25,40.64a17.87,17.87,0,0,0-30.5,12.63,3.89,3.89,0,0,0,1.16,2.81,4,4,0,0,0,5.61,0,3.89,3.89,0,0,0,1.16-2.81,9.94,9.94,0,1,1,17,7l-5.77,5.35a17.35,17.35,0,0,0-5.25,12.66,4,4,0,0,0,7.93,0,9.51,9.51,0,0,1,2.89-7l5.77-5.35a17.89,17.89,0,0,0,0-25.29Z"/></svg>