<svg id="Layer_1" data-name="Layer 1" xmlns="http://www.w3.org/2000/svg" viewBox="0 0 185.16 185.16"><defs><style>.cls-1{fill:#f7f7f7;}.cls-2{fill:none;stroke:#ef3a3a;stroke-linecap:round;stroke-linejoin:round;stroke-width:1.5px;}</style></defs><title>education_icon</title><circle class="cls-1" cx="92.58" cy="92.58" r="92.58"/><path class="cls-2" d="M95.68,121.4H44a2.24,2.24,0,0,1-2.24-2.24V52.29A2.24,2.24,0,0,1,44,50.05h97.22a2.24,2.24,0,0,1,2.24,2.24v66.87a2.24,2.24,0,0,1-2.24,2.24h-22"/><line class="cls-2" x1="69.38" y1="95.87" x2="87.48" y2="95.87"/><line class="cls-2" x1="56.18" y1="71.67" x2="128.76" y2="71.67"/><line class="cls-2" x1="56.18" y1="82.67" x2="97.68" y2="82.67"/><circle class="cls-2" cx="107.98" cy="100.89" r="21.11"/><path class="cls-2" d="M119,119.63v24.1a1.35,1.35,0,0,1-1.91,1.23l-9-4.11a1.29,1.29,0,0,0-1.12,0l-9,4.11A1.35,1.35,0,0,1,96,143.73V118.86"/><path class="cls-2" d="M109.76,90.58l2.14,4.35A2,2,0,0,0,113.39,96l4.79.69a2,2,0,0,1,1.1,3.38l-3.47,3.38a2,2,0,0,0-.57,1.76l.82,4.77a2,2,0,0,1-2.87,2.09l-4.29-2.26a2,2,0,0,0-1.84,0l-4.29,2.26A2,2,0,0,1,99.9,110l.82-4.77a2,2,0,0,0-.57-1.76l-3.47-3.38a2,2,0,0,1,1.1-3.38l4.79-.69a2,2,0,0,0,1.49-1.08l2.14-4.35A2,2,0,0,1,109.76,90.58Z"/></svg>