<svg id="Layer_1" data-name="Layer 1" xmlns="http://www.w3.org/2000/svg" viewBox="0 0 185.16 185.16"><defs><style>.cls-1{fill:#f7f7f7;}.cls-2{fill:none;stroke:#ef3a3a;stroke-miterlimit:10;stroke-width:1.5px;}</style></defs><title>luxury_icon</title><circle class="cls-1" cx="92.58" cy="92.58" r="92.58"/><line class="cls-2" x1="40.02" y1="137.62" x2="140.48" y2="137.62"/><polyline class="cls-2" points="136.11 93.86 136.11 137.62 75.94 137.62 75.94 80.58"/><polygon class="cls-2" points="44.66 137.62 75.94 137.62 75.94 91.21 44.66 109.44 44.66 137.62"/><rect class="cls-2" x="51.65" y="114.41" width="16.51" height="23.2"/><rect class="cls-2" x="51.65" y="122.34" width="16.51" height="7.34"/><line class="cls-2" x1="75.94" y1="137.62" x2="75.94" y2="80.58"/><polyline class="cls-2" points="81.44 75.22 71.57 73.19 71.57 79.68 85.75 82.6"/><polyline class="cls-2" points="121.02 89.86 140.48 93.86 140.48 87.37 124.41 84.06"/><rect class="cls-2" x="99.59" y="120.29" width="11.91" height="17.33"/><rect class="cls-2" x="84.23" y="120.29" width="8.97" height="10.33"/><rect class="cls-2" x="118.05" y="120.29" width="8.97" height="10.33"/><polyline class="cls-2" points="124.41 84.06 105.5 116.43 73.02 60.81 81.95 46.45 129.06 46.45 137.99 60.81 124.41 84.06"/><line class="cls-2" x1="73.02" y1="60.81" x2="137.98" y2="60.81"/><line class="cls-2" x1="105.5" y1="116.43" x2="90.71" y2="60.81"/><line class="cls-2" x1="98.11" y1="46.45" x2="90.71" y2="60.81"/><line class="cls-2" x1="105.5" y1="116.43" x2="120.3" y2="60.81"/><line class="cls-2" x1="112.9" y1="46.45" x2="120.3" y2="60.81"/><line class="cls-2" x1="83.44" y1="39.56" x2="85.95" y2="29.95"/><line class="cls-2" x1="76.91" y1="42.08" x2="69.7" y2="33.38"/><line class="cls-2" x1="74.16" y1="47.46" x2="62.83" y2="47.46"/></svg>