<svg id="Layer_1" data-name="Layer 1" xmlns="http://www.w3.org/2000/svg" viewBox="0 0 185.16 185.16"><defs><style>.cls-1{fill:#f7f7f7;}.cls-2{fill:none;stroke:#ef3a3a;stroke-miterlimit:10;stroke-width:1.5px;}</style></defs><title>newdevelopment_icon</title><circle class="cls-1" cx="92.58" cy="92.58" r="92.58"/><rect class="cls-2" x="46.92" y="42.84" width="7.87" height="89.67"/><line class="cls-2" x1="38.11" y1="132.51" x2="63.61" y2="132.51"/><polyline class="cls-2" points="46.92 59.5 29.2 59.5 29.2 64.47"/><path class="cls-2" d="M54.8,59.5H87.41V74.71s4.34,2.86,2.6,5.86-5,4.82-8,0"/><rect class="cls-2" x="21.97" y="65.37" width="14.83" height="7.79"/><line class="cls-2" x1="29.2" y1="59.5" x2="46.92" y2="42.84"/><line class="cls-2" x1="54.8" y1="42.84" x2="87.41" y2="59.5"/><line class="cls-2" x1="159.15" y1="132.51" x2="72.98" y2="132.51"/><polyline class="cls-2" points="76.72 94.97 76.72 132.51 128.34 132.51 128.34 83.58"/><polygon class="cls-2" points="155.16 132.51 128.34 132.51 128.34 92.7 155.16 108.34 155.16 132.51"/><rect class="cls-2" x="135.01" y="112.6" width="14.16" height="19.9" transform="translate(284.19 245.11) rotate(-180)"/><rect class="cls-2" x="135.01" y="119.41" width="14.16" height="6.3" transform="translate(284.19 245.11) rotate(-180)"/><line class="cls-2" x1="128.34" y1="132.51" x2="128.34" y2="83.58"/><polygon class="cls-2" points="72.98 76.63 132.09 64.47 132.09 70.03 72.98 82.2 72.98 76.63"/><rect class="cls-2" x="97.84" y="117.65" width="10.21" height="14.86" transform="translate(205.88 250.15) rotate(-180)"/><rect class="cls-2" x="113.53" y="99.42" width="7.69" height="8.86" transform="translate(234.75 207.7) rotate(-180)"/><rect class="cls-2" x="98.82" y="99.42" width="7.69" height="8.86" transform="translate(205.34 207.7) rotate(-180)"/><rect class="cls-2" x="84.12" y="99.42" width="7.69" height="8.86" transform="translate(175.93 207.7) rotate(-180)"/><rect class="cls-2" x="113.53" y="117.65" width="7.69" height="8.86" transform="translate(234.75 244.16) rotate(-180)"/><rect class="cls-2" x="84.53" y="117.65" width="7.69" height="8.86" transform="translate(176.74 244.16) rotate(-180)"/></svg>