<svg id="Layer_1" data-name="Layer 1" xmlns="http://www.w3.org/2000/svg" viewBox="0 0 185.16 185.16"><defs><style>.cls-1{fill:#f7f7f7;}.cls-2,.cls-3{fill:none;stroke:#ef3a3a;stroke-miterlimit:10;stroke-width:1.5px;}.cls-3{stroke-dasharray:5.45;}</style></defs><title>relocation_icon</title><circle class="cls-1" cx="92.58" cy="92.58" r="92.58"/><path class="cls-2" d="M95.86,92.09c0,13.07-18.77,36.23-25.56,44.18a3.14,3.14,0,0,1-4.83,0c-6.79-8-25.55-31.11-25.55-44.18,0-16,12.52-28.91,28-28.91S95.86,76.13,95.86,92.09Z"/><path class="cls-2" d="M146.06,65.06c0,6.92-9.93,19.18-13.53,23.38a1.65,1.65,0,0,1-2.55,0c-3.6-4.2-13.53-16.46-13.53-23.38a14.81,14.81,0,1,1,29.61,0Z"/><path class="cls-3" d="M121.38,89h-4.6a12.09,12.09,0,0,0-12.09,12.09h0a12.09,12.09,0,0,0,12.09,12.09h18.37a12.09,12.09,0,0,1,12.09,12.09h0a12.09,12.09,0,0,1-12.09,12.09H77.61"/><circle class="cls-2" cx="67.89" cy="89.04" r="11.25"/><circle class="cls-2" cx="131.26" cy="63.18" r="3.57"/></svg>