<svg id="Layer_1" data-name="Layer 1" xmlns="http://www.w3.org/2000/svg" viewBox="0 0 185.16 185.16"><defs><style>.cls-1{fill:#f7f7f7;}.cls-2{fill:none;stroke:#ef3a3a;stroke-linecap:round;stroke-linejoin:round;stroke-width:1.5px;}</style></defs><title>resales_icon</title><circle class="cls-1" cx="92.58" cy="92.58" r="92.58"/><path class="cls-2" d="M131.83,138.09H49.65a5,5,0,0,1-5-5V82.26a4.94,4.94,0,0,1,1.68-3.72L87.44,42.12a5,5,0,0,1,6.6,0l41.09,36.42a5,5,0,0,1,1.67,3.72v50.86A5,5,0,0,1,131.83,138.09Z"/><line class="cls-2" x1="90.74" y1="71.59" x2="158.06" y2="71.59"/><polyline class="cls-2" points="144.49 83.83 158.06 71.59 144.49 59.35"/><line class="cls-2" x1="90.74" y1="122.54" x2="23.96" y2="122.54"/><polyline class="cls-2" points="36.01 110.3 22.43 122.54 36.01 134.78"/><path class="cls-2" d="M99.73,100.26a7.09,7.09,0,0,0-1.91-2.17A11.07,11.07,0,0,0,95.3,96.7c-.86-.33-1.73-.64-2.61-.91L90.17,95a10.5,10.5,0,0,1-2-.84,3.62,3.62,0,0,1-1.15-1A1.89,1.89,0,0,1,86.73,92a1.34,1.34,0,0,1,.23-.79,2.64,2.64,0,0,1,.84-.7,5.32,5.32,0,0,1,1.39-.5A8.51,8.51,0,0,1,92,89.88c.45,0,.89.09,1.35.17s.92.16,1.38.25l1.2.25A2.37,2.37,0,0,0,99.1,88.3a2.54,2.54,0,0,0-.44-1.43,2.44,2.44,0,0,0-1.34-1,15.77,15.77,0,0,0-3.08-.76c-.56-.1-1.84-.17-1.84-.22V84.1a2,2,0,0,0-.6-1.72,3.14,3.14,0,0,0-3.44,0c-.5.4-1.3,1-1.3,1.7V85c0,.12-.66.28-1.26.49a7.74,7.74,0,0,0-2.38,1.46,6.79,6.79,0,0,0-1.76,2.29A6.35,6.35,0,0,0,81,92.3a7,7,0,0,0,.64,3,6.87,6.87,0,0,0,1.59,2.13,9.24,9.24,0,0,0,2.19,1.41,22.88,22.88,0,0,0,2.37.92c.79.27,1.6.52,2.43.77s1.53.5,2.24.79a8.51,8.51,0,0,1,1.09.54,3.52,3.52,0,0,1,.72.56,2,2,0,0,1,.4.6,2,2,0,0,1,.13.74,1.81,1.81,0,0,1-.27,1,2.76,2.76,0,0,1-.88.85,4.82,4.82,0,0,1-1.42.6,11.41,11.41,0,0,1-3.65.13,10.22,10.22,0,0,1-1.39-.21,11.26,11.26,0,0,1-1.18-.3l-1.25-.38a2.37,2.37,0,0,0-3.19,2.27,2.48,2.48,0,0,0,.46,1.42,2.63,2.63,0,0,0,1.39,1c.36.13.78.26,1.24.4s1,.26,1.49.37a9.58,9.58,0,0,0,1,.31c.17,0-.11.05-.11.06v1c0,.92,1,1.45,1.38,1.73a3.19,3.19,0,0,0,1.74.51,2.34,2.34,0,0,0,1.44-.51,2.12,2.12,0,0,0,.78-1.73v-1.07c0-.12,1.58-.3,2.24-.54a10.57,10.57,0,0,0,3-1.53,7.63,7.63,0,0,0,2.08-2.41,6.85,6.85,0,0,0,.81-3.26A6.38,6.38,0,0,0,99.73,100.26Z"/><path class="cls-2" d="M116.21,97.06a25.47,25.47,0,0,1-25.47,25.48"/><path class="cls-2" d="M65.27,97.06A25.47,25.47,0,0,1,90.74,71.59"/></svg>