<svg id="Layer_1" data-name="Layer 1" xmlns="http://www.w3.org/2000/svg" viewBox="0 0 185.16 185.16"><defs><style>.cls-1{fill:#f7f7f7;}.cls-2{fill:none;stroke:#ef3a3a;stroke-miterlimit:10;stroke-width:1.5px;}</style></defs><title>shortsales_icon</title><circle class="cls-1" cx="92.58" cy="92.58" r="92.58"/><path class="cls-2" d="M131.92,133.46H52.36a4.81,4.81,0,0,1-4.81-4.81V79.4a4.8,4.8,0,0,1,1.62-3.6L89,40.53a4.83,4.83,0,0,1,6.39,0L135.12,75.8a4.8,4.8,0,0,1,1.62,3.6v49.25A4.82,4.82,0,0,1,131.92,133.46Z"/><path class="cls-2" d="M92.15,71.23a25.26,25.26,0,1,0,25.26,25.26A25.26,25.26,0,0,0,92.15,71.23Zm0,37.83a12.57,12.57,0,1,1,12.57-12.57A12.57,12.57,0,0,1,92.15,109.06Z"/><path class="cls-2" d="M67.55,90.75A12.58,12.58,0,0,1,84.26,72.29"/><path class="cls-2" d="M116.74,90.75A12.58,12.58,0,0,0,100,72.29"/><path class="cls-2" d="M67.55,102.67a12.58,12.58,0,0,0,16.71,18.46"/><path class="cls-2" d="M116.74,102.67A12.58,12.58,0,0,1,100,121.13"/><path class="cls-2" d="M80.21,92.54a12.61,12.61,0,0,1,6.27-7.26l-9.19-9.19a25.19,25.19,0,0,0-6.53,7Z"/><path class="cls-2" d="M106.89,76l-9.21,9.21A12.57,12.57,0,0,1,104,92.39L113.45,83A25.29,25.29,0,0,0,106.89,76Z"/><path class="cls-2" d="M80.25,100.54,70.81,110a25.48,25.48,0,0,0,6.56,7l9.2-9.2A12.63,12.63,0,0,1,80.25,100.54Z"/><path class="cls-2" d="M104,100.69a12.54,12.54,0,0,1-6.4,7.12L106.8,117a25.32,25.32,0,0,0,6.6-6.93Z"/></svg>